Coordinates
version=1
nRows=6
nColumns=63
inDegrees=yes

Units are S.I. units (second, meters, Newtons, ...)
If the header above contains a line with 'inDegrees', this indicates whether rotational values are in degrees (yes) or radians (no).

endheader
time	pelvis_tilt	pelvis_list	pelvis_rotation	pelvis_tx	pelvis_ty	pelvis_tz	hip_flexion_r	hip_adduction_r	hip_rotation_r	knee_angle_r	knee_angle_r_beta	ankle_angle_r	subtalar_angle_r	mtp_angle_r	hip_flexion_l	hip_adduction_l	hip_rotation_l	knee_angle_l	knee_angle_l_beta	ankle_angle_l	subtalar_angle_l	mtp_angle_l	L5_S1_Flex_Ext	L5_S1_Lat_Bending	L5_S1_axial_rotation	L4_L5_Flex_Ext	L4_L5_Lat_Bending	L4_L5_axial_rotation	L3_L4_Flex_Ext	L3_L4_Lat_Bending	L3_L4_axial_rotation	L2_L3_Flex_Ext	L2_L3_Lat_Bending	L2_L3_axial_rotation	L1_L2_Flex_Ext	L1_L2_Lat_Bending	L1_L2_axial_rotation	L1_T12_Flex_Ext	L1_T12_Lat_Bending	L1_T12_axial_rotation	Abs_r3	Abs_r2	Abs_r1	Abs_t1	Abs_t2	neck_flexion	neck_bending	neck_rotation	arm_flex_r	arm_add_r	arm_rot_r	elbow_flex_r	pro_sup_r	wrist_flex_r	wrist_dev_r	arm_flex_l	arm_add_l	arm_rot_l	elbow_flex_l	pro_sup_l	wrist_flex_l	wrist_dev_l
5.616667	0.220451	-4.562192	82.907947	0.325442	1.036732	0.304622	-5.228559	2.195173	23.111661	0.435491	0.007601	28.074404	-16.012807	0.000000	-4.577484	-3.851556	16.150228	0.486804	0.008496	30.800183	-15.152527	0.000000	0.107049	0.138758	-0.319476	0.198802	0.184549	-0.339443	0.175872	0.337377	-0.339443	0.122347	0.337377	-0.279541	0.099406	0.282956	-0.259574	0.061168	0.214937	-0.239607	0.764643	1.569663	-1.776830	0.000000	0.000000	23.107613	-7.488584	-5.568323	22.019609	-12.284403	88.634579	53.965440	2.248509	-7.648323	15.392580	9.757426	-18.489560	52.043274	55.221706	69.817964	13.087531	9.319849
5.633333	0.391674	-4.697795	82.994219	0.325075	1.036528	0.304113	-5.125569	2.368050	23.208896	0.440418	0.007687	27.895201	-16.125327	0.000000	-4.548419	-4.015284	16.374433	0.496558	0.008667	30.445880	-15.588614	0.000000	0.118081	0.154580	-0.265808	0.219288	0.205592	-0.282421	0.193995	0.375847	-0.282421	0.134955	0.375847	-0.232582	0.109650	0.315221	-0.215969	0.067471	0.239445	-0.199356	0.843439	1.748645	-1.478344	0.000000	0.000000	23.419751	-7.533956	-6.373186	21.552481	-12.614593	87.684086	54.349896	1.453368	-8.360936	15.578731	9.912208	-18.479001	52.503951	55.244872	69.967103	13.129850	8.945374
5.650000	0.556551	-4.836226	83.089099	0.324638	1.036277	0.303676	-5.009067	2.531466	23.161226	0.460090	0.008030	27.825636	-16.003240	0.000000	-4.488520	-4.168730	16.415154	0.543333	0.009483	30.202746	-15.765786	0.000000	0.128084	0.169597	-0.213443	0.237866	0.225564	-0.226783	0.210430	0.412358	-0.226783	0.146388	0.412358	-0.186762	0.118939	0.345842	-0.173422	0.073187	0.262706	-0.160082	0.914895	1.918515	-1.187104	0.000000	0.000000	23.726569	-7.587837	-7.227739	21.219843	-12.858557	87.057051	54.582585	1.099800	-8.847189	15.832983	10.103955	-18.410723	52.956336	55.211724	70.059727	13.051210	8.737996
5.666667	0.684509	-4.971440	83.185913	0.324164	1.035988	0.303327	-4.894980	2.651470	23.187782	0.472342	0.008244	27.776015	-15.964060	0.000000	-4.412001	-4.282307	16.494702	0.586353	0.010234	29.981559	-15.988549	0.000000	0.137008	0.179645	-0.146577	0.254437	0.238928	-0.155738	0.225090	0.436788	-0.155738	0.156586	0.436788	-0.128255	0.127225	0.366332	-0.119094	0.078286	0.278270	-0.109933	0.978632	2.032177	-0.815219	0.000000	0.000000	23.994638	-7.712432	-8.211495	20.915535	-13.028691	86.548758	54.696139	1.011698	-9.276395	16.208563	10.414750	-18.272068	53.588205	55.068136	69.897593	12.919696	8.673943
5.683333	0.783045	-5.084522	83.295421	0.323649	1.035705	0.303132	-4.802084	2.736477	23.151164	0.477942	0.008342	27.767422	-15.852305	0.000000	-4.328967	-4.364419	16.466786	0.625473	0.010917	29.859694	-16.026551	0.000000	0.140468	0.185311	-0.066287	0.260864	0.246464	-0.070430	0.230776	0.450566	-0.070430	0.160541	0.450566	-0.058001	0.130439	0.377887	-0.053858	0.080264	0.287047	-0.049715	1.003352	2.096277	-0.368667	0.000000	0.000000	24.262052	-7.845368	-9.273054	20.685518	-13.138899	86.262130	54.689890	1.246705	-9.531284	16.561890	10.836930	-18.058914	54.394084	54.826949	69.522232	12.667092	8.698633
5.700000	0.831787	-5.181713	83.430408	0.323110	1.035439	0.303068	-4.724535	2.768611	23.081855	0.476815	0.008322	27.786346	-15.733687	0.000000	-4.228296	-4.396447	16.384182	0.658005	0.011484	29.814875	-15.924978	0.000000	0.141245	0.183199	0.030580	0.262306	0.243655	0.032491	0.232051	0.445431	0.032491	0.161429	0.445431	0.026757	0.131160	0.373580	0.024846	0.080707	0.283776	0.022935	1.008899	2.072389	0.170076	0.000000	0.000000	24.461021	-8.015705	-10.499471	20.426710	-13.204808	86.007610	54.584020	1.659878	-9.635262	16.809073	11.360490	-17.765561	55.372167	54.475682	68.904210	12.357100	8.875876
